<mxfile host="app.diagrams.net" agent="Mozilla/5.0 (Windows NT 10.0; Win64; x64) AppleWebKit/537.36 (KHTML, like Gecko) Chrome/138.0.0.0 Safari/537.36 Edg/138.0.0.0" version="28.0.6">
  <diagram name="PÃ¡gina-1" id="WADpwN7cBZMA6mB5cum-">
    <mxGraphModel dx="1418" dy="804" grid="1" gridSize="10" guides="1" tooltips="1" connect="1" arrows="1" fold="1" page="1" pageScale="1" pageWidth="827" pageHeight="1169" math="0" shadow="0">
      <root>
        <mxCell id="0" />
        <mxCell id="1" parent="0" />
        <mxCell id="VuTxXE9pKKoBWTpiBRzc-8" value="" style="edgeStyle=orthogonalEdgeStyle;rounded=0;orthogonalLoop=1;jettySize=auto;html=1;startArrow=openThin;startFill=0;endArrow=none;endFill=0;" edge="1" parent="1" source="VuTxXE9pKKoBWTpiBRzc-1" target="VuTxXE9pKKoBWTpiBRzc-5">
          <mxGeometry relative="1" as="geometry" />
        </mxCell>
        <mxCell id="VuTxXE9pKKoBWTpiBRzc-1" value="Livro" style="swimlane;fontStyle=1;align=center;verticalAlign=top;childLayout=stackLayout;horizontal=1;startSize=26;horizontalStack=0;resizeParent=1;resizeParentMax=0;resizeLast=0;collapsible=1;marginBottom=0;whiteSpace=wrap;html=1;" vertex="1" parent="1">
          <mxGeometry x="60" y="170" width="160" height="60" as="geometry" />
        </mxCell>
        <mxCell id="VuTxXE9pKKoBWTpiBRzc-2" value="+ autor: Autor" style="text;strokeColor=none;fillColor=none;align=left;verticalAlign=top;spacingLeft=4;spacingRight=4;overflow=hidden;rotatable=0;points=[[0,0.5],[1,0.5]];portConstraint=eastwest;whiteSpace=wrap;html=1;" vertex="1" parent="VuTxXE9pKKoBWTpiBRzc-1">
          <mxGeometry y="26" width="160" height="26" as="geometry" />
        </mxCell>
        <mxCell id="VuTxXE9pKKoBWTpiBRzc-3" value="" style="line;strokeWidth=1;fillColor=none;align=left;verticalAlign=middle;spacingTop=-1;spacingLeft=3;spacingRight=3;rotatable=0;labelPosition=right;points=[];portConstraint=eastwest;strokeColor=inherit;" vertex="1" parent="VuTxXE9pKKoBWTpiBRzc-1">
          <mxGeometry y="52" width="160" height="8" as="geometry" />
        </mxCell>
        <mxCell id="VuTxXE9pKKoBWTpiBRzc-12" value="" style="edgeStyle=orthogonalEdgeStyle;rounded=0;orthogonalLoop=1;jettySize=auto;html=1;" edge="1" parent="1" source="VuTxXE9pKKoBWTpiBRzc-5" target="VuTxXE9pKKoBWTpiBRzc-9">
          <mxGeometry relative="1" as="geometry" />
        </mxCell>
        <mxCell id="VuTxXE9pKKoBWTpiBRzc-5" value="Autor" style="swimlane;fontStyle=1;align=center;verticalAlign=top;childLayout=stackLayout;horizontal=1;startSize=26;horizontalStack=0;resizeParent=1;resizeParentMax=0;resizeLast=0;collapsible=1;marginBottom=0;whiteSpace=wrap;html=1;" vertex="1" parent="1">
          <mxGeometry x="334" y="170" width="160" height="60" as="geometry" />
        </mxCell>
        <mxCell id="VuTxXE9pKKoBWTpiBRzc-6" value="+ especialidade : String" style="text;strokeColor=none;fillColor=none;align=left;verticalAlign=top;spacingLeft=4;spacingRight=4;overflow=hidden;rotatable=0;points=[[0,0.5],[1,0.5]];portConstraint=eastwest;whiteSpace=wrap;html=1;" vertex="1" parent="VuTxXE9pKKoBWTpiBRzc-5">
          <mxGeometry y="26" width="160" height="26" as="geometry" />
        </mxCell>
        <mxCell id="VuTxXE9pKKoBWTpiBRzc-7" value="" style="line;strokeWidth=1;fillColor=none;align=left;verticalAlign=middle;spacingTop=-1;spacingLeft=3;spacingRight=3;rotatable=0;labelPosition=right;points=[];portConstraint=eastwest;strokeColor=inherit;" vertex="1" parent="VuTxXE9pKKoBWTpiBRzc-5">
          <mxGeometry y="52" width="160" height="8" as="geometry" />
        </mxCell>
        <mxCell id="VuTxXE9pKKoBWTpiBRzc-9" value="Pessoa" style="swimlane;fontStyle=1;align=center;verticalAlign=top;childLayout=stackLayout;horizontal=1;startSize=26;horizontalStack=0;resizeParent=1;resizeParentMax=0;resizeLast=0;collapsible=1;marginBottom=0;whiteSpace=wrap;html=1;" vertex="1" parent="1">
          <mxGeometry x="334" y="40" width="160" height="60" as="geometry" />
        </mxCell>
        <mxCell id="VuTxXE9pKKoBWTpiBRzc-10" value="+nome: String" style="text;strokeColor=none;fillColor=none;align=left;verticalAlign=top;spacingLeft=4;spacingRight=4;overflow=hidden;rotatable=0;points=[[0,0.5],[1,0.5]];portConstraint=eastwest;whiteSpace=wrap;html=1;" vertex="1" parent="VuTxXE9pKKoBWTpiBRzc-9">
          <mxGeometry y="26" width="160" height="26" as="geometry" />
        </mxCell>
        <mxCell id="VuTxXE9pKKoBWTpiBRzc-11" value="" style="line;strokeWidth=1;fillColor=none;align=left;verticalAlign=middle;spacingTop=-1;spacingLeft=3;spacingRight=3;rotatable=0;labelPosition=right;points=[];portConstraint=eastwest;strokeColor=inherit;" vertex="1" parent="VuTxXE9pKKoBWTpiBRzc-9">
          <mxGeometry y="52" width="160" height="8" as="geometry" />
        </mxCell>
        <mxCell id="VuTxXE9pKKoBWTpiBRzc-13" value="Diagrama de Classes" style="text;html=1;align=center;verticalAlign=middle;resizable=0;points=[];autosize=1;strokeColor=#d79b00;fillColor=#ffe6cc;" vertex="1" parent="1">
          <mxGeometry x="120" y="90" width="140" height="30" as="geometry" />
        </mxCell>
        <mxCell id="VuTxXE9pKKoBWTpiBRzc-17" style="edgeStyle=orthogonalEdgeStyle;rounded=0;orthogonalLoop=1;jettySize=auto;html=1;entryX=0.5;entryY=0;entryDx=0;entryDy=0;" edge="1" parent="1" source="VuTxXE9pKKoBWTpiBRzc-14" target="VuTxXE9pKKoBWTpiBRzc-15">
          <mxGeometry relative="1" as="geometry" />
        </mxCell>
        <mxCell id="VuTxXE9pKKoBWTpiBRzc-14" value="Pessoa&lt;div&gt;nome: Nataniel&lt;/div&gt;" style="html=1;whiteSpace=wrap;" vertex="1" parent="1">
          <mxGeometry x="170" y="380" width="110" height="50" as="geometry" />
        </mxCell>
        <mxCell id="VuTxXE9pKKoBWTpiBRzc-18" style="edgeStyle=orthogonalEdgeStyle;rounded=0;orthogonalLoop=1;jettySize=auto;html=1;entryX=0.5;entryY=0;entryDx=0;entryDy=0;" edge="1" parent="1" source="VuTxXE9pKKoBWTpiBRzc-15" target="VuTxXE9pKKoBWTpiBRzc-16">
          <mxGeometry relative="1" as="geometry" />
        </mxCell>
        <mxCell id="VuTxXE9pKKoBWTpiBRzc-15" value="Autor&lt;div&gt;nome: Nataniel&lt;/div&gt;&lt;div&gt;especialidade: Professor&lt;/div&gt;" style="html=1;whiteSpace=wrap;" vertex="1" parent="1">
          <mxGeometry x="145" y="480" width="160" height="60" as="geometry" />
        </mxCell>
        <mxCell id="VuTxXE9pKKoBWTpiBRzc-16" value="Livro&lt;br&gt;&lt;div&gt;autor: Nataniel&lt;/div&gt;&lt;div&gt;especialidade: Professor&lt;/div&gt;" style="html=1;whiteSpace=wrap;" vertex="1" parent="1">
          <mxGeometry x="145" y="610" width="160" height="60" as="geometry" />
        </mxCell>
      </root>
    </mxGraphModel>
  </diagram>
</mxfile>
